<?xml version="1.0" standalone="no"?><!DOCTYPE svg PUBLIC "-//W3C//DTD SVG 1.1//EN" "http://www.w3.org/Graphics/SVG/1.1/DTD/svg11.dtd"><svg t="1739367185025" class="icon" viewBox="0 0 1024 1024" version="1.1" xmlns="http://www.w3.org/2000/svg" p-id="1504" xmlns:xlink="http://www.w3.org/1999/xlink" width="200" height="200"><path d="M888.832 278.528c4.096 4.096 10.24 4.096 14.336 0l67.584-67.584c4.096-4.096 4.096-10.24 0-14.336l-149.504-149.504c-4.096-4.096-10.24-4.096-14.336 0l-67.584 67.584c-4.096 4.096-4.096 10.24 0 14.336l149.504 149.504zM456.704 413.696l149.504 149.504c4.096 4.096 10.24 4.096 14.336 0l229.376-229.376c4.096-4.096 4.096-10.24 0-14.336l-149.504-149.504c-4.096-4.096-10.24-4.096-14.336 0L456.704 401.408c-4.096 4.096-4.096 10.24 0 12.288zM399.36 462.848v153.6c0 2.048 2.048 4.096 4.096 4.096h153.6c4.096 0 4.096-4.096 2.048-6.144l-153.6-153.6c-2.048-2.048-6.144-2.048-6.144 2.048zM964.608 378.88c0-2.048 0-6.144-2.048-8.192v2.048c2.048 2.048 2.048 4.096 2.048 6.144z" fill="#717071" p-id="1505"></path><path d="M972.8 458.752c0 186.368-141.312 344.064-333.824 393.216L512 978.944l-126.976-126.976C192.512 804.864 51.2 645.12 51.2 458.752c0-225.28 206.848-409.6 460.8-409.6 43.008 0 86.016 6.144 126.976 16.384h2.048c12.288 4.096 20.48 14.336 20.48 26.624 0 6.144-2.048 14.336-8.192 18.432l-2.048 2.048c-4.096 4.096-10.24 6.144-18.432 6.144h-6.144c-2.048 0-4.096 0-6.144-2.048-32.768-10.24-69.632-14.336-108.544-14.336C290.816 102.4 112.64 260.096 112.64 456.704c0 118.784 65.536 225.28 167.936 288.768 43.008 26.624 90.112 47.104 143.36 57.344l63.488 63.488 24.576 24.576 24.576-24.576 63.488-63.488c53.248-10.24 100.352-30.72 143.36-57.344 100.352-63.488 167.936-169.984 167.936-288.768 0-22.528-4.096-47.104-8.192-67.584v-4.096c0-6.144 0-10.24 2.048-16.384 4.096-6.144 8.192-12.288 16.384-16.384 2.048 0 2.048-2.048 4.096-2.048 16.384-4.096 30.72 4.096 36.864 18.432 0 2.048 2.048 4.096 2.048 8.192 6.144 26.624 8.192 53.248 8.192 81.92z" fill="#717071" p-id="1506"></path></svg>